# xmcd CD database file
#
# Track frame offsets:
#	150
#	15940
#	37883
#	52448
#	68288
#
# Disc length: 1201 seconds
#
# Revision: 0
# Processed by: cddbd v1.5.1PL0 Copyright (c) Steve Scherf et al.
# Submitted via: CDex 1.51
#
DISCID=3304af05
DTITLE=河辺　千恵子 - Shining!/cry baby
DYEAR=2004
DGENRE=アニメ
TTITLE0=Shining!
TTITLE1=cry baby
TTITLE2=quiet not
TTITLE3=Shining!(instrumental)
TTITLE4=cry baby(instrumental)
EXTD=YEAR: 2004/11/25
EXTT0=
EXTT1=
EXTT2=
EXTT3=
EXTT4=
PLAYORDER=
